<svg width="23" height="21" viewBox="0 0 23 21" fill="none" xmlns="http://www.w3.org/2000/svg">
<path d="M1.75 1.46191H7.75C8.81087 1.46191 9.82828 1.88334 10.5784 2.63349C11.3286 3.38363 11.75 4.40105 11.75 5.46191V19.4619C11.75 18.6663 11.4339 17.9032 10.8713 17.3406C10.3087 16.778 9.54565 16.4619 8.75 16.4619H1.75V1.46191Z" stroke="#BDBDBD" stroke-width="2" stroke-linecap="round" stroke-linejoin="round"/>
<path d="M21.75 1.46191H15.75C14.6891 1.46191 13.6717 1.88334 12.9216 2.63349C12.1714 3.38363 11.75 4.40105 11.75 5.46191V19.4619C11.75 18.6663 12.0661 17.9032 12.6287 17.3406C13.1913 16.778 13.9544 16.4619 14.75 16.4619H21.75V1.46191Z" stroke="#BDBDBD" stroke-width="2" stroke-linecap="round" stroke-linejoin="round"/>
</svg>
