<svg width="25" height="24" viewBox="0 0 25 24" fill="none" xmlns="http://www.w3.org/2000/svg">
<path d="M0.5 12C0.5 5.37258 5.87258 0 12.5 0C19.1274 0 24.5 5.37258 24.5 12C24.5 18.6274 19.1274 24 12.5 24C5.87258 24 0.5 18.6274 0.5 12Z" fill="#1E2000"/>
<path fill-rule="evenodd" clip-rule="evenodd" d="M8.81814 7H12.6114C14.9187 7 16.6677 8.32228 17.3184 10.2464H18.5V11.4094H17.5672C17.5855 11.5931 17.5948 11.7804 17.5948 11.9706V11.9991C17.5948 12.2133 17.583 12.4238 17.5599 12.63H18.5V13.793H17.2959C16.6281 15.6903 14.8926 17 12.6114 17H8.81814V13.793H7.5V12.63H8.81814V11.4094H7.5V10.2464H8.81814V7ZM9.87857 13.793V15.9567H12.6114C14.2978 15.9567 15.5507 15.0901 16.1339 13.793H9.87857ZM16.4588 12.63H9.87857V11.4094H16.4605C16.4849 11.6014 16.4974 11.7983 16.4974 11.9991V12.0277C16.4974 12.2331 16.4844 12.4342 16.4588 12.63ZM12.6114 8.04153C14.3056 8.04153 15.5623 8.93101 16.142 10.2464H9.87857V8.04153H12.6114Z" fill="#EEFF00"/>
<path d="M12.5 23C6.42487 23 1.5 18.0751 1.5 12H-0.5C-0.5 19.1797 5.3203 25 12.5 25V23ZM23.5 12C23.5 18.0751 18.5751 23 12.5 23V25C19.6797 25 25.5 19.1797 25.5 12H23.5ZM12.5 1C18.5751 1 23.5 5.92487 23.5 12H25.5C25.5 4.8203 19.6797 -1 12.5 -1V1ZM12.5 -1C5.3203 -1 -0.5 4.8203 -0.5 12H1.5C1.5 5.92487 6.42487 1 12.5 1V-1Z" fill="#EEFF00"/>
</svg>
