<svg width="25" height="24" viewBox="0 0 25 24" fill="none" xmlns="http://www.w3.org/2000/svg">
<path d="M0.5 12C0.5 5.37258 5.87258 0 12.5 0C19.1274 0 24.5 5.37258 24.5 12C24.5 18.6274 19.1274 24 12.5 24C5.87258 24 0.5 18.6274 0.5 12Z" fill="#1E2000"/>
<path d="M16.5 9.68387C16.4545 9.72993 16.4024 9.75261 16.3361 9.75192C16.1072 9.74918 15.8784 9.74711 15.6499 9.75227C15.5358 9.75502 15.4889 9.70243 15.4658 9.59073C15.1536 8.07673 13.9443 7.05354 12.4739 7.05526C11.076 7.05698 9.80339 8.185 9.57355 9.62441C9.53265 9.88047 9.5132 10.1382 9.5132 10.3977C9.5132 12.1228 9.5132 13.8481 9.5132 15.5732C9.5132 15.6302 9.5132 15.6873 9.5132 15.7832C9.68566 15.5601 9.83703 15.3656 9.9874 15.1703C10.2575 14.8194 10.5269 14.4685 10.7967 14.1173C10.9299 13.944 10.9704 13.9406 11.1192 14.0949C11.4753 14.4651 11.8338 14.8328 12.1853 15.2078C12.2694 15.2979 12.3113 15.3164 12.4016 15.2075C13.0295 14.452 13.665 13.7034 14.2981 12.9525C14.4432 12.7806 14.4601 12.7799 14.6282 12.9243C14.898 13.1559 15.1691 13.3865 15.4378 13.6158C15.4896 13.5917 15.4698 13.5488 15.4698 13.5172C15.4711 12.9827 15.4672 12.4482 15.4738 11.9138C15.4751 11.7962 15.4365 11.7746 15.3349 11.778C15.0962 11.7856 14.8571 11.7787 14.6183 11.7815C14.5488 11.7822 14.4924 11.7663 14.4383 11.7172C14.1669 11.4701 13.8925 11.2264 13.6195 10.9813C13.5687 10.9356 13.5159 10.8889 13.5453 10.8078C13.575 10.7249 13.6445 10.7315 13.7118 10.7315C14.5761 10.7318 15.4405 10.7339 16.3044 10.7294C16.4387 10.7287 16.4812 10.7775 16.4809 10.9143C16.4779 12.4118 16.4792 13.9093 16.4786 15.4072C16.4786 15.5766 16.439 15.6134 16.2767 15.5879C16.1168 15.5629 15.9786 15.4862 15.8579 15.3755C15.4731 15.0229 15.0853 14.6734 14.707 14.3128C14.6091 14.2197 14.5676 14.2355 14.4887 14.3331C13.8378 15.1377 13.1809 15.9371 12.5256 16.738C12.3957 16.8968 12.3726 16.8978 12.2282 16.7476C11.8684 16.3736 11.5057 16.0028 11.1521 15.6227C11.0592 15.5226 11.016 15.5154 10.9282 15.6316C10.4448 16.2719 9.95443 16.9064 9.46175 17.5391C9.26653 17.7897 9.01755 17.955 8.70296 17.9952C8.5506 18.0145 8.50675 17.9756 8.50675 17.8186C8.50609 15.2521 8.48893 12.6854 8.51202 10.119C8.53082 8.03136 9.97191 6.35823 11.9693 6.03653C12.0062 6.03069 12.0531 6.05028 12.0762 5.99976C12.3509 5.99976 12.6252 5.99976 12.8999 5.99976C12.9068 6.02381 12.925 6.02725 12.9461 6.03C14.5435 6.25066 15.6476 7.14118 16.2725 8.68336C16.3744 8.93461 16.4123 9.20579 16.5 9.46115C16.5 9.53574 16.5 9.60998 16.5 9.68387Z" fill="#E0F000"/>
<path d="M12.5 23C6.42487 23 1.5 18.0751 1.5 12H-0.5C-0.5 19.1797 5.3203 25 12.5 25V23ZM23.5 12C23.5 18.0751 18.5751 23 12.5 23V25C19.6797 25 25.5 19.1797 25.5 12H23.5ZM12.5 1C18.5751 1 23.5 5.92487 23.5 12H25.5C25.5 4.8203 19.6797 -1 12.5 -1V1ZM12.5 -1C5.3203 -1 -0.5 4.8203 -0.5 12H1.5C1.5 5.92487 6.42487 1 12.5 1V-1Z" fill="#EEFF00"/>
</svg>
