<?xml version="1.0" encoding="utf-8"?>
<!-- Generator: Adobe Illustrator 25.2.1, SVG Export Plug-In . SVG Version: 6.00 Build 0)  -->
<svg version="1.1" id="Layer_1" xmlns="http://www.w3.org/2000/svg" xmlns:xlink="http://www.w3.org/1999/xlink" x="0px" y="0px"
	 viewBox="0 0 1366 768" style="enable-background:new 0 0 1366 768;" xml:space="preserve">
<style type="text/css">
	.st0{fill:#FFFFFF;}
</style>
<g>
	<path class="st0" d="M1332,213.85c-1.38,1.34-2.96,2-4.97,1.98c-6.94-0.08-13.88-0.14-20.81,0.01c-3.46,0.08-4.88-1.45-5.58-4.7
		c-9.47-44.05-46.14-73.82-90.73-73.77c-42.39,0.05-80.98,32.87-87.95,74.75c-1.24,7.45-1.83,14.95-1.83,22.5
		c0,50.19,0,100.39,0,150.58c0,1.66,0,3.32,0,6.11c5.23-6.49,9.82-12.15,14.38-17.83c8.19-10.21,16.36-20.42,24.54-30.64
		c4.04-5.04,5.27-5.14,9.78-0.65c10.8,10.77,21.67,21.47,32.33,32.38c2.55,2.62,3.82,3.16,6.56-0.01
		c19.04-21.98,38.31-43.76,57.51-65.61c4.4-5,4.91-5.02,10.01-0.82c8.18,6.74,16.4,13.45,24.55,20.12c1.57-0.7,0.97-1.95,0.97-2.87
		c0.04-15.55-0.08-31.1,0.12-46.65c0.04-3.42-1.13-4.05-4.21-3.95c-7.24,0.22-14.49,0.02-21.73,0.1c-2.11,0.02-3.82-0.44-5.46-1.87
		c-8.23-7.19-16.55-14.28-24.83-21.41c-1.54-1.33-3.14-2.69-2.25-5.05c0.9-2.41,3.01-2.22,5.05-2.22
		c26.21,0.01,52.42,0.07,78.62-0.06c4.07-0.02,5.36,1.4,5.35,5.38c-0.09,43.57-0.05,87.14-0.07,130.72c0,4.93-1.2,6-6.12,5.26
		c-4.85-0.73-9.04-2.96-12.7-6.18c-11.67-10.26-23.43-20.43-34.9-30.92c-2.97-2.71-4.23-2.25-6.62,0.59
		c-19.74,23.41-39.66,46.67-59.53,69.97c-3.94,4.62-4.64,4.65-9.02,0.28c-10.91-10.88-21.91-21.67-32.63-32.73
		c-2.82-2.91-4.13-3.12-6.79,0.26c-14.66,18.63-29.53,37.09-44.47,55.5c-5.92,7.29-13.47,12.1-23.01,13.27
		c-4.62,0.56-5.95-0.57-5.95-5.14c-0.02-74.67-0.54-149.35,0.16-224.02c0.57-60.74,44.27-109.42,104.84-118.78
		c1.12-0.17,2.54,0.4,3.24-1.07c8.33,0,16.65,0,24.98,0c0.21,0.7,0.76,0.8,1.4,0.88c48.44,6.42,81.92,32.33,100.87,77.2
		c3.09,7.31,4.24,15.2,6.9,22.63C1332,209.54,1332,211.69,1332,213.85z"/>
	<path class="st0" d="M227.53,329.92c0-4.7-0.05-8.64,0.01-12.58c0.07-5.21,1.14-6.31,6.17-6.33c6.93-0.04,13.87,0.06,20.8-0.04
		c3.72-0.05,5.33,1.61,5.32,5.27c-0.08,33.24,1.21,66.56-0.51,99.71c-2.31,44.29-34.77,85.13-83.59,95.19
		c-44.67,9.21-89.99-9.31-113.44-47.09c-40.21-64.77-3.41-148.69,72.4-161.49C169.41,296.7,200.13,306.21,227.53,329.92z
		 M78.08,406.21c-0.01,42.73,32.64,76.16,74.33,76.31c36.93,0.13,75.95-27.65,75.22-77.55c-0.57-39.24-31.32-73-75.37-73.23
		C111.16,331.53,78.09,365.28,78.08,406.21z"/>
	<path class="st0" d="M721.5,407.22c0,59.99-46.72,106.36-107.55,105.91c-62.27-0.47-107.33-49.08-106.27-108.27
		c0.98-54.83,45.48-105.16,110.03-103.85C675.57,302.18,722.27,349.78,721.5,407.22z M539.77,407.11
		c-0.09,41.26,32.75,75.26,72.8,75.38c43.85,0.13,76.95-32.24,77.09-75.41c0.13-40.77-33-74.49-72.62-75.26
		C572.67,330.97,539.96,365.98,539.77,407.11z"/>
	<path class="st0" d="M327.28,325.05c13.25-11.3,27.53-18.36,43.58-22.02c50.33-11.5,103.98,23.28,113.73,73.76
		c1.29,6.67,1.97,13.35,1.96,20.16c-0.06,36.95-0.03,73.89-0.03,110.84c0,6.43-0.06,6.48-6.43,6.49
		c-6.63,0.01-13.26-0.21-19.88,0.07c-4.51,0.19-6.03-1.73-6-5.97c0.09-15.39,0.04-30.79,0.04-46.18c0-22.01,0-44.03,0-66.04
		c0-31.45-23.46-58.16-54.65-62.23c-39.02-5.09-72.31,24.14-72.31,63.49c0,36.49,0,72.97,0,109.46c0,7.13-0.26,7.4-7.17,7.4
		c-6.47,0-12.96-0.22-19.42,0.07c-4.56,0.2-5.81-1.67-5.8-5.98c0.1-52.8,0.07-105.61,0.07-158.41c0-22.01-0.01-44.03,0-66.04
		c0-5.32,0.85-6.2,6.1-6.23c6.47-0.04,12.95-0.03,19.42,0c5.82,0.02,6.78,0.96,6.79,6.66C327.29,297.55,327.28,310.78,327.28,325.05
		z"/>
	<path class="st0" d="M802.97,480.05c17.87,0,35.74,0.03,53.62-0.03c3.86-0.01,7.65-0.73,11.37-1.8
		c14.39-4.14,22.81-16.45,20.9-30.55c-1.85-13.66-14.43-24.79-28.5-24.87c-21.58-0.12-43.16-0.01-64.74-0.04
		c-29.37-0.04-53.69-19.47-59.95-47.87c-6.06-27.48,8.03-55.83,33.9-68.09c7.63-3.62,15.75-5.23,24.15-5.32
		c9.56-0.1,19.11,0.09,28.67-0.08c3.96-0.07,5.57,1.34,5.46,5.38c-0.2,7.23-0.17,14.47-0.01,21.7c0.09,3.81-1.55,5.23-5.23,5.22
		c-9.55-0.02-19.11-0.09-28.65,0.26c-17.31,0.64-28.81,12.68-28.32,29.28c0.44,15.28,13.45,27.04,29.93,27.08
		c21.88,0.05,43.77-0.16,65.65,0.26c30.42,0.59,56.52,24.58,59.1,53.78c2.82,31.92-17.47,59.68-48.44,66.13
		c-11.82,2.46-23.81,2.31-35.82,2.13c-13.1-0.19-26.2-0.07-39.3-0.07c-16.18,0-32.37-0.1-48.55,0.07c-4.17,0.04-5.89-1.33-5.76-5.58
		c0.2-6.92,0.22-13.86-0.01-20.78c-0.15-4.42,1.63-5.99,5.98-5.95c18.19,0.14,36.37,0.06,54.56,0.06
		C802.97,480.27,802.97,480.16,802.97,480.05z"/>
	<path class="st0" d="M975.74,395.59c0,18.47-0.02,36.94,0.01,55.41c0.02,16.81,12.95,29.68,29.89,29.76
		c6.32,0.03,12.64,0.13,18.96-0.04c3.67-0.1,5.45,1.17,5.39,5.02c-0.11,7.39-0.09,14.78-0.01,22.16c0.03,3.16-1.13,5.11-4.48,5.08
		c-11.07-0.08-22.16,0.53-33.17-1.5c-26.77-4.94-48.67-30.05-48.81-57.35c-0.29-58.34-0.07-116.68-0.14-175.02
		c-0.01-4,1.48-5.49,5.47-5.38c7.24,0.2,14.49,0.18,21.73,0.01c3.85-0.09,5.24,1.63,5.19,5.26c-0.09,6.31,0.12,12.63-0.09,18.93
		c-0.1,2.9,0.87,3.61,3.67,3.58c14.79-0.13,29.59-0.07,44.39-0.06c5.9,0,6.2,0.31,6.21,6.34c0.02,6.77-0.04,13.55,0.02,20.32
		c0.03,3.24-0.8,5.01-4.66,5.2c-15.1,0.75-30.19,0.21-45.28,0.26c-3.37,0.01-4.42,0.73-4.38,4.28
		C975.84,357.1,975.74,376.35,975.74,395.59z"/>
	<path class="st0" d="M156.08,624.21c-29.59-0.32-52.85-9.12-73.11-25.95c-5.14-4.27-5.11-5.75-0.36-10.25
		c4.13-3.92,8.25-7.85,12.37-11.78c4.73-4.5,5.52-4.63,10.39-0.49c10.34,8.79,22.19,14.22,35.54,16.48
		c41.08,6.95,80.61-22.31,85.71-62.3c1.56-12.25-0.9-11.26,12.47-11.23c4.78,0.01,9.56-0.01,14.33,0c5.8,0.01,6.69,0.86,6.21,6.8
		c-1.56,19.38-7.21,37.43-18.69,53.28C219.29,608.65,189.46,622.93,156.08,624.21z"/>
	<path class="st0" d="M987.73,586.44c0-6.47,0.1-12.93-0.05-19.4c-0.06-2.44,0.7-3.13,3.13-3.11c12.33,0.11,24.66,0.05,36.99,0.06
		c1.62,0,3.5-0.47,3.38,2.34c-0.11,2.75-2,2.23-3.6,2.23c-10.33,0.02-20.66,0.11-30.98-0.05c-2.95-0.05-3.91,0.72-3.91,3.82
		c0,10.72-0.13,10.72,10.54,10.72c7.24,0,14.49,0.01,21.73,0c1.76,0,3.4-0.13,3.37,2.5c-0.03,2.66-1.73,2.42-3.45,2.41
		c-9.4-0.01-18.81,0.09-28.21-0.06c-2.84-0.04-3.97,0.54-3.99,3.74c-0.08,12.86-0.21,12.86,12.53,12.86c8.02,0,16.03,0,24.05,0
		c1.86,0,3.76-0.33,3.63,2.66c-0.12,2.9-2.14,2.1-3.63,2.1c-12.64,0.05-25.28-0.05-37.92,0.09c-2.75,0.03-3.78-0.55-3.68-3.52
		C987.9,599.38,987.73,592.91,987.73,586.44z"/>
	<path class="st0" d="M875.09,601.67c0-11.99-0.04-22.88,0.04-33.78c0.01-1.56-1.05-3.82,2.21-3.96c3.44-0.15,2.68,2.15,2.68,3.99
		c0.03,12.3,0.06,24.61-0.04,36.91c-0.01,1.48,1.08,3.68-1.22,4.36c-2,0.59-3.66-0.2-5.26-1.86
		c-10.57-10.96-21.28-21.79-31.98-32.62c-0.91-0.92-1.57-2.27-3.51-2.53c0,10.98,0.05,21.84-0.05,32.7
		c-0.02,1.78,1.32,4.56-2.59,4.47c-3.52-0.08-2.42-2.55-2.44-4.25c-0.08-12.3-0.07-24.6,0-36.91c0.01-1.4-0.88-3.48,1.05-4.05
		c2.04-0.6,4.06-0.24,5.84,1.61c10.33,10.76,20.78,21.4,31.21,32.07C872.08,598.91,873.21,599.89,875.09,601.67z"/>
	<path class="st0" d="M725.52,600.6c0-11.03-0.03-22.07,0.04-33.11c0.01-1.21-0.79-3.09,1.26-3.41c1.71-0.26,3.74-0.74,3.72,2.39
		c-0.1,13.4-0.04,26.79-0.05,40.19c0,1.03,0.23,2.38-1.26,2.56c-1.82,0.22-3.54,0.23-5.06-1.37c-5.63-5.91-11.29-11.79-17.17-17.46
		c-6.21-5.98-12.67-11.7-19.33-17.82c-0.22,0.13,0.51,1.5,0.5,2.56c-0.07,10.32-0.04,20.63-0.04,30.95c0,1.69,0.34,3.34-2.42,3.29
		c-2.79-0.05-2.34-1.79-2.34-3.42c-0.01-12.63-0.04-25.25,0.04-37.88c0.01-1.33-1.07-3.38,1.05-3.94c1.71-0.45,3.53-0.43,5.07,1.23
		c3.66,3.95,7.46,7.78,11.33,11.54C708.91,584.72,717.04,592.46,725.52,600.6z"/>
	<path class="st0" d="M935.23,610.35c-12.89,0.01-22.68-7.42-24.95-18.94c-2.26-11.5,3.23-21.99,13.98-26.7
		c11.2-4.9,25.15-1.58,31.76,7.38c1.77,2.4,2.02,3.81-1.15,5.03c-2.46,0.94-2.47-1.23-3.25-2.23c-5.5-7.05-15.85-9.55-24.69-5.85
		c-7.88,3.3-12.36,11.35-11.25,20.21c0.91,7.24,6.28,13.44,13.48,15.35c9.18,2.43,17,0.23,23.24-7.09c0.85-1,1.11-2.88,2.76-2.74
		c1.14,0.1,2.44,0.77,3.25,1.6c1.25,1.27-0.37,2.18-0.96,3.05C952.76,606.42,944.7,610.34,935.23,610.35z"/>
	<path class="st0" d="M756.55,608.77c7.09-14.37,14.09-28.67,21.23-42.91c1.42-2.83,5.93-2.83,7.36-0.02
		c7.25,14.18,14.37,28.42,21.62,42.83c-3.76,1.51-6.18,0.64-7.19-3c-1.9-6.88-6.21-9.23-13.26-8.28
		c-4.99,0.67-10.14,0.29-15.21,0.06c-2.55-0.11-4.01,0.69-4.91,3.05c-0.71,1.85-1.74,3.59-2.64,5.37
		C761.65,609.61,761.65,609.61,756.55,608.77z M781.41,569.55c-3.78,7.66-7.14,14.5-10.52,21.32c-0.84,1.69-0.59,2.55,1.52,2.53
		c6.16-0.05,12.32-0.04,18.48-0.01c1.9,0.01,2.09-0.9,1.38-2.31C788.78,584.15,785.28,577.22,781.41,569.55z"/>
	<path class="st0" d="M574.44,586.76c0-6.46,0.1-12.92-0.05-19.37c-0.06-2.52,0.56-3.49,3.29-3.46c11.85,0.14,23.71,0.07,35.57,0.05
		c1.66,0,2.97-0.02,2.92,2.33c-0.05,2.35-1.42,2.28-3.04,2.28c-9.85-0.02-19.71,0.09-29.56-0.07c-2.9-0.05-3.92,0.61-3.92,3.75
		c0.01,11.12-0.12,11.12,10.82,11.12c6.31,0,12.63,0,18.94,0c1.55,0,3-0.24,3.06,2.2c0.06,2.57-1.33,2.59-3.19,2.58
		c-8.31-0.04-16.64,0.22-24.94-0.12c-4.03-0.17-4.96,1.18-4.69,4.9c0.33,4.44,0.01,8.91,0.11,13.37c0.04,2.05-0.43,3.05-2.78,3.07
		c-2.59,0.02-2.57-1.4-2.56-3.23C574.47,599.68,574.44,593.22,574.44,586.76z"/>
	<path class="st0" d="M649.54,586.68c0,6.45,0,12.91,0,19.36c0,1.7,0.27,3.31-2.44,3.33c-2.57,0.02-2.6-1.32-2.6-3.18
		c0.03-13.06,0.04-26.12-0.01-39.19c-0.01-1.96,0.22-3.11,2.68-3.08c2.77,0.03,2.35,1.76,2.35,3.4
		C649.55,573.77,649.54,580.23,649.54,586.68z"/>
	<path class="st0" d="M1080.41,502.53c-4.68,5.09-4.68,5.09-9.58-0.14c0,3.21,0.01,5.71-0.01,8.21c-0.01,1.08,0.03,2.36-1.53,2.25
		c-1.31-0.1-1.02-1.32-1.03-2.16c-0.04-4.14-0.03-8.28-0.01-12.42c0-0.89-0.14-2.03,1.13-2.11c0.67-0.04,1.4,0.39,2.07,0.7
		c0.25,0.11,0.38,0.47,0.57,0.7c1.28,1.48,1.76,4.34,3.6,4.41c1.93,0.08,2.45-2.77,3.64-4.28c0.82-1.04,1.62-1.93,3.02-1.5
		c1.45,0.45,0.92,1.77,0.93,2.74c0.06,3.68,0.07,7.36,0,11.04c-0.02,1.08,0.61,2.82-1.25,2.89c-2.28,0.09-1.46-1.9-1.52-3.09
		C1080.32,507.66,1080.41,505.52,1080.41,502.53z"/>
	<path class="st0" d="M1052.21,496.04c0.77,0,1.55-0.12,2.29,0.02c1.48,0.28,3.84-1.04,4.2,1.43c0.43,2.94-2.18,1.81-3.57,1.92
		c-1.88,0.16-1.71,1.38-1.72,2.59c-0.02,3.06-0.01,6.12-0.03,9.18c-0.01,1.03-0.38,1.81-1.6,1.7c-1.07-0.1-1-1-1.02-1.71
		c-0.04-2.14,0-4.28-0.03-6.42c-0.04-2.74,0.9-6.21-4.02-5.36c-0.82,0.14-1.42-0.39-1.43-1.35c-0.01-1,0.19-1.88,1.4-1.92
		c1.84-0.05,3.67-0.01,5.51-0.01C1052.21,496.09,1052.21,496.06,1052.21,496.04z"/>
</g>
</svg>
