<svg width="23" height="24" viewBox="0 0 23 24" fill="none" xmlns="http://www.w3.org/2000/svg">
<path d="M15.75 22.4887V18.6187C15.7875 18.1419 15.7231 17.6625 15.561 17.2125C15.3989 16.7625 15.1429 16.3521 14.81 16.0087C17.95 15.6587 21.25 14.4687 21.25 9.00871C21.2497 7.61253 20.7127 6.26991 19.75 5.25871C20.2059 4.03721 20.1736 2.68706 19.66 1.48871C19.66 1.48871 18.48 1.13871 15.75 2.96871C13.458 2.34753 11.042 2.34753 8.75 2.96871C6.02 1.13871 4.84 1.48871 4.84 1.48871C4.32638 2.68706 4.29414 4.03721 4.75 5.25871C3.78013 6.27741 3.24252 7.63217 3.25 9.03871C3.25 14.4587 6.55 15.6487 9.69 16.0387C9.361 16.3787 9.10726 16.7841 8.94531 17.2286C8.78335 17.6731 8.71681 18.1468 8.75 18.6187V22.4887M8.75 19.4887C3.75 20.9887 3.75 16.9887 1.75 16.4887L8.75 19.4887Z" stroke="#BDBDBD" stroke-width="2" stroke-linecap="round" stroke-linejoin="round"/>
</svg>
