<svg width="25" height="21" viewBox="0 0 25 21" fill="none" xmlns="http://www.w3.org/2000/svg">
<path d="M23.75 1.47197C22.7924 2.14745 21.7321 2.66408 20.61 3.00197C20.0077 2.30948 19.2073 1.81866 18.317 1.5959C17.4267 1.37313 16.4895 1.42917 15.6321 1.75642C14.7747 2.08368 14.0384 2.66637 13.523 3.42569C13.0075 4.185 12.7377 5.08431 12.75 6.00197V7.00197C10.9926 7.04754 9.25127 6.65778 7.68101 5.86742C6.11074 5.07705 4.76032 3.91061 3.75 2.47197C3.75 2.47197 -0.25 11.472 8.75 15.472C6.69053 16.8699 4.23716 17.5709 1.75 17.472C10.75 22.472 21.75 17.472 21.75 5.97197C21.7491 5.69342 21.7223 5.41556 21.67 5.14197C22.6906 4.13546 23.4108 2.86468 23.75 1.47197V1.47197Z" stroke="#BDBDBD" stroke-width="2" stroke-linecap="round" stroke-linejoin="round"/>
</svg>
